mtllib models/block/test.mtl

o wall_diag_left

g face_east
v 0.000000 0.000000 1.000000
v 0.000000 1.000000 1.000000
v 0.000000 0.000000 0.000000
v 0.000000 1.000000 0.000000
vt 0.000000 1.000000
vt 0.000000 0.666667
vt 0.333333 0.666667
vt 0.333333 1.000000
vn -1.000000 0.000000 0.000000
usemtl _tex
f 4/1/1 3/2/1 1/3/1
f 2/4/1 4/1/1 1/3/1
g face_north
v 1.000000 0.000000 1.000000
v 0.000000 0.000000 1.000000
v 0.000000 1.000000 1.000000
v 1.000000 1.000000 1.000000
vt 0.333333 1.000000
vt 0.333333 0.666667
vt 0.666667 0.666667
vt 0.666667 1.000000
vn 0.000000 0.000000 1.000000
usemtl _tex
f 7/5/2 6/6/2 5/7/2
f 8/8/2 7/5/2 5/7/2
g face_top
v 0.000000 1.000000 1.000000
v 1.000000 1.000000 1.000000
v 0.000000 1.000000 0.000000
vt 0.666667 1.000000
vt 1.000000 0.666667
vt 1.000000 1.000000
vn 0.000000 1.000000 -0.000000
usemtl _tex
f 10/9/3 11/10/3 9/11/3
g face_diag
v 1.000000 0.000000 1.000000
v 1.000000 1.000000 1.000000
v 0.000000 0.000000 0.000000
v 0.000000 1.000000 0.000000
vt 0.000000 0.666667
vt 0.000000 0.333333
vt 0.437500 0.333333
vt 0.437500 0.666667
vn 0.707100 0.000000 -0.707100
usemtl _tex
f 13/12/4 12/13/4 14/14/4
f 15/15/4 13/12/4 14/14/4
