
mtllib tng_core.mtl

o Core_C


v 1.000000 1.000000 0.327944
v 0.987598 1.000000 0.308477
v 0.923569 1.000000 0.225033
v 0.852512 1.000000 0.147488
v 0.774967 1.000000 0.076431
v 0.691523 1.000000 0.012402
v 0.672055 1.000000 0.000000
v 0.700207 0.992709 0.000000
v 0.839099 0.951952 0.000000
v 0.839788 0.951728 0.000000
v 0.942370 0.864741 0.000000
v 0.978981 0.756270 0.000000
v 0.942370 0.647799 0.000000
v 0.839788 0.560812 0.000000
v 0.839099 0.560588 0.000000
v 0.700207 0.519831 0.000000
v 0.672048 0.512538 0.000000
v 0.672048 0.487462 0.000000
v 0.700207 0.480169 0.000000
v 0.839099 0.439412 0.000000
v 0.839788 0.439188 0.000000
v 0.942370 0.352201 0.000000
v 0.978981 0.243730 0.000000
v 0.942370 0.135259 0.000000
v 0.839788 0.048272 0.000000
v 0.839099 0.048048 0.000000
v 0.700207 0.007291 0.000000
v 0.672056 0.000000 0.000000
v 0.691523 0.000000 0.012402
v 0.774967 0.000000 0.076431
v 0.852512 0.000000 0.147488
v 0.923569 0.000000 0.225033
v 0.987598 0.000000 0.308476
v 1.000000 0.000000 0.327944
v 1.000000 0.007291 0.299792
v 1.000000 0.048048 0.160900
v 1.000000 0.048272 0.160212
v 1.000000 0.135259 0.057630
v 1.000000 0.243730 0.021019
v 1.000000 0.352201 0.057630
v 1.000000 0.439188 0.160212
v 1.000000 0.439412 0.160900
v 1.000000 0.480169 0.299792
v 1.000000 0.487462 0.327952
v 1.000000 0.512538 0.327952
v 1.000000 0.519831 0.299792
v 1.000000 0.560588 0.160900
v 1.000000 0.560812 0.160212
v 1.000000 0.647799 0.057630
v 1.000000 0.756270 0.021019
v 1.000000 0.864741 0.057630
v 1.000000 0.951728 0.160212
v 1.000000 0.951952 0.160900
v 1.000000 0.992709 0.299792
v 0.923391 0.951728 0.076609
v 0.972443 0.864741 0.027557
v 0.989949 0.756270 0.010050
v 0.972443 0.647799 0.027557
v 0.923391 0.560812 0.076609
v 0.923566 0.512538 0.225036
v 0.852509 0.512538 0.147491
v 0.987594 0.512538 0.308479
v 0.923566 0.487462 0.225036
v 0.852509 0.487462 0.147491
v 0.774964 0.512538 0.076434
v 0.987594 0.487462 0.308479
v 0.774964 0.487462 0.076434
v 0.923391 0.439188 0.076609
v 0.691521 0.512538 0.012406
v 0.691521 0.487462 0.012406
v 0.972443 0.352201 0.027557
v 0.989949 0.243730 0.010050
v 0.972443 0.135259 0.027557
v 0.923391 0.048272 0.076609
vt 0.582031 0.987607
vt 0.582031 0.999997
vt 0.564028 1.000000
vt 0.664062 0.999997
vt 0.748047 0.999997
vt 0.664451 0.917969
vt 0.719493 0.835938
vt 0.748047 0.835938
vt 0.748047 0.917969
vt 0.833586 0.917969
vt 0.833984 0.999997
vt 0.737817 0.751953
vt 0.748047 0.751953
vt 0.777264 0.835938
vt 0.916016 0.987607
vt 0.916016 0.999997
vt 0.748047 0.667969
vt 0.758515 0.751953
vt 0.934447 1.000000
vt 0.748047 0.587891
vt 0.719493 0.667969
vt 0.748047 0.505859
vt 0.664451 0.587891
vt 0.777264 0.667969
vt 0.582031 0.518253
vt 0.582031 0.505859
vt 0.664062 0.505859
vt 0.664062 0.494141
vt 0.748047 0.494141
vt 0.833984 0.505859
vt 0.833586 0.587891
vt 0.564023 0.505859
vt 0.582031 0.494141
vt 0.833984 0.494141
vt 0.664451 0.412109
vt 0.916016 0.505859
vt 0.916016 0.518252
vt 0.582031 0.481747
vt 0.916016 0.494141
vt 0.748047 0.412109
vt 0.833586 0.412109
vt 0.719493 0.330078
vt 0.748047 0.330078
vt 0.934452 0.505859
vt 0.564023 0.494141
vt 0.934452 0.494141
vt 0.916016 0.481747
vt 0.777264 0.330078
vt 0.737817 0.250000
vt 0.748047 0.250000
vt 0.758515 0.250000
vt 0.748047 0.164062
vt 0.748047 0.082031
vt 0.719493 0.164062
vt 0.777264 0.164062
vt 0.664451 0.082031
vt 0.664062 0.000003
vt 0.748047 0.000000
vt 0.833586 0.082031
vt 0.664062 0.081651
vt 0.582031 0.012393
vt 0.916016 0.012393
vt 0.833984 0.081650
vt 0.833984 0.000003
vt 0.582031 0.000000
vt 0.564029 0.000000
vt 0.916016 0.000003
vt 0.934447 0.000000
vt 0.664062 0.918349
vt 0.833984 0.918350
vt 0.664062 0.587510
vt 0.833984 0.587510
vt 0.664062 0.412490
vt 0.833984 0.412490
vn 0.350800 0.900900 -0.255300
vn 0.355400 0.901000 -0.248800
vn 0.366200 0.900800 -0.233300
vn 0.332300 0.901000 -0.278900
vn 0.306800 0.901000 -0.306800
vn 0.403700 0.836800 -0.369900
vn 0.646000 0.481900 -0.591900
vn 0.637900 0.431500 -0.637900
vn 0.443500 0.778800 -0.443500
vn 0.369900 0.836800 -0.403700
vn 0.278900 0.901000 -0.332300
vn 0.737300 0.000000 -0.675600
vn 0.707100 0.000000 -0.707100
vn 0.591900 0.481900 -0.646000
vn 0.255300 0.900900 -0.350800
vn 0.248800 0.901000 -0.355400
vn 0.637900 -0.431500 -0.637900
vn 0.675600 0.000000 -0.737300
vn 0.233300 0.900800 -0.366200
vn 0.443500 -0.778800 -0.443500
vn 0.646000 -0.481900 -0.591900
vn 0.595700 -0.538800 -0.595700
vn 0.403700 -0.836700 -0.369900
vn 0.591900 -0.481900 -0.646000
vn 0.350800 -0.900900 -0.255300
vn 0.690100 -0.538800 -0.483200
vn 0.645300 -0.538800 -0.541500
vn 0.645300 0.538800 -0.541500
vn 0.595700 0.538800 -0.595700
vn 0.541500 -0.538800 -0.645300
vn 0.369900 -0.836800 -0.403700
vn 0.807400 -0.288800 -0.514400
vn 0.690100 0.538800 -0.483200
vn 0.541500 0.538800 -0.645300
vn 0.483200 -0.538800 -0.690100
vn 0.255300 -0.900900 -0.350800
vn 0.483200 0.538800 -0.690100
vn 0.514400 -0.288800 -0.807400
vn 0.807400 0.288800 -0.514400
vn 0.514400 0.288800 -0.807400
vn 0.403700 -0.836800 -0.369900
vn 0.332300 -0.901000 -0.278900
vn 0.306800 -0.901000 -0.306800
vn 0.326500 -0.900900 -0.285800
vn 0.285800 -0.900900 -0.326500
vn 0.278900 -0.901000 -0.332300
vn 0.355400 -0.901000 -0.248800
vn 0.366200 -0.900800 -0.233300
vn 0.248800 -0.901000 -0.355400
vn 0.233300 -0.900800 -0.366200
vn 0.326500 0.900900 -0.285800
vn 0.285800 0.900900 -0.326500
vn 0.326500 -0.900900 -0.285900
vn 0.285700 -0.900900 -0.326500
vn 0.285800 0.900900 -0.326600
usemtl _tex
s 1
f 54/1/1 2/2/2 1/3/3
f 3/4/4 2/2/2 54/1/1
f 4/5/5 3/4/4 52/6/6
f 51/7/7 56/8/8 55/9/9
f 10/10/10 5/11/11 4/5/5
f 50/12/12 57/13/13 56/8/8
f 55/9/9 56/8/8 11/14/14
f 8/15/15 6/16/16 5/11/11
f 58/17/17 57/13/13 50/12/12
f 56/8/8 57/13/13 12/18/18
f 6/16/16 8/15/15 7/19/19
f 59/20/20 58/17/17 49/21/21
f 12/18/18 57/13/13 58/17/17
f 61/22/22 59/20/20 48/23/23
f 13/24/24 58/17/17 59/20/20
f 46/25/25 62/26/26 60/27/27
f 60/27/27 63/28/28 64/29/29
f 61/22/22 65/30/30 14/31/31
f 45/32/32 62/26/26 46/25/25
f 62/26/26 66/33/33 63/28/28
f 61/22/22 64/29/29 67/34/34
f 64/29/29 63/28/28 41/35/6
f 65/30/30 69/36/35 16/37/36
f 66/33/33 62/26/26 45/32/32
f 63/28/28 66/33/33 43/38/1
f 65/30/30 67/34/34 70/39/37
f 64/29/29 68/40/9 21/41/10
f 40/42/7 71/43/8 68/40/9
f 16/37/36 69/36/35 17/44/38
f 43/38/1 66/33/33 44/45/39
f 69/36/35 70/39/37 18/46/40
f 19/47/15 70/39/37 67/34/34
f 68/40/9 71/43/8 22/48/14
f 39/49/12 72/50/13 71/43/8
f 18/46/40 70/39/37 19/47/15
f 71/43/8 72/50/13 23/51/18
f 73/52/17 72/50/13 39/49/12
f 23/51/18 72/50/13 73/52/17
f 74/53/20 73/52/17 38/54/21
f 24/55/24 73/52/17 74/53/20
f 37/56/41 32/57/42 31/58/43
f 25/59/31 74/53/20 31/58/43
f 32/57/42 36/60/44 35/61/25
f 27/62/36 26/63/45 30/64/46
f 33/65/47 35/61/25 34/66/48
f 27/62/36 29/67/49 28/68/50
f 53/69/51 3/4/4 54/1/1
f 53/69/51 52/6/6 3/4/4
f 55/9/9 4/5/5 52/6/6
f 52/6/6 51/7/7 55/9/9
f 4/5/5 55/9/9 10/10/10
f 10/10/10 9/70/52 5/11/11
f 51/7/7 50/12/12 56/8/8
f 10/10/10 55/9/9 11/14/14
f 9/70/52 8/15/15 5/11/11
f 49/21/21 58/17/17 50/12/12
f 11/14/14 56/8/8 12/18/18
f 48/23/23 59/20/20 49/21/21
f 13/24/24 12/18/18 58/17/17
f 48/23/23 47/71/53 60/27/27
f 60/27/27 61/22/22 48/23/23
f 14/31/31 13/24/24 59/20/20
f 47/71/53 46/25/25 60/27/27
f 61/22/22 60/27/27 64/29/29
f 15/72/54 14/31/31 65/30/30
f 59/20/20 61/22/22 14/31/31
f 60/27/27 62/26/26 63/28/28
f 65/30/30 61/22/22 67/34/34
f 42/73/51 41/35/6 63/28/28
f 68/40/9 64/29/29 41/35/6
f 15/72/54 65/30/30 16/37/36
f 44/45/39 66/33/33 45/32/32
f 42/73/51 63/28/28 43/38/1
f 69/36/35 65/30/30 70/39/37
f 21/41/10 20/74/55 67/34/34
f 67/34/34 64/29/29 21/41/10
f 41/35/6 40/42/7 68/40/9
f 17/44/38 69/36/35 18/46/40
f 20/74/55 19/47/15 67/34/34
f 21/41/10 68/40/9 22/48/14
f 40/42/7 39/49/12 71/43/8
f 22/48/14 71/43/8 23/51/18
f 38/54/21 73/52/17 39/49/12
f 24/55/24 23/51/18 73/52/17
f 37/56/41 74/53/20 38/54/21
f 25/59/31 24/55/24 74/53/20
f 32/57/42 37/56/41 36/60/44
f 74/53/20 37/56/41 31/58/43
f 31/58/43 30/64/46 25/59/31
f 26/63/45 25/59/31 30/64/46
f 33/65/47 32/57/42 35/61/25
f 29/67/49 27/62/36 30/64/46
