
mtllib tng_core.mtl

o Core_B

v 0.750000 0.000000 0.712500
v 0.750000 1.000000 0.712500
v 0.764351 0.000000 0.715355
v 0.764351 1.000000 0.715355
v 0.776516 0.000000 0.723483
v 0.776516 1.000000 0.723483
v 0.784645 0.000000 0.735649
v 0.784645 1.000000 0.735649
v 0.787500 0.000000 0.750000
v 0.787500 1.000000 0.750000
v 0.784645 0.000000 0.764351
v 0.784645 1.000000 0.764351
v 0.776517 0.000000 0.776516
v 0.776517 1.000000 0.776516
v 0.764351 0.000000 0.784645
v 0.764351 1.000000 0.784645
v 0.750000 0.000000 0.787500
v 0.750000 1.000000 0.787500
v 0.735649 0.000000 0.784645
v 0.735649 1.000000 0.784645
v 0.723484 0.000000 0.776517
v 0.723484 1.000000 0.776517
v 0.715355 0.000000 0.764351
v 0.715355 1.000000 0.764351
v 0.712500 0.000000 0.750000
v 0.712500 1.000000 0.750000
v 0.715355 0.000000 0.735649
v 0.715355 1.000000 0.735649
v 0.723484 0.000000 0.723483
v 0.723484 1.000000 0.723483
v 0.735649 0.000000 0.715355
v 0.735649 1.000000 0.715355
v 0.050000 0.000000 0.925000
v 0.050000 1.000000 0.925000
v 0.050000 0.000000 0.575000
v 0.050000 1.000000 0.575000
v -0.000000 0.000000 0.575000
v -0.000000 1.000000 0.575000
v 0.978981 0.756270 1.000000
v 0.942370 0.864741 1.000000
v 0.883989 0.864741 0.946503
v 0.899903 0.756270 0.927538
v 0.942370 0.647799 1.000000
v 0.883989 0.647799 0.946503
v 0.788806 0.864741 0.873468
v 0.803007 0.756270 0.853187
v 0.839788 0.951728 1.000000
v 0.839399 0.951728 0.999644
v 0.839788 0.560812 1.000000
v 0.839399 0.560812 0.999644
v 0.788806 0.647799 0.873468
v 0.687621 0.864741 0.809005
v 0.700000 0.756270 0.787565
v 0.749018 0.951728 0.930292
v 0.839099 0.951952 1.000000
v 0.839099 0.560588 1.000000
v 0.749018 0.560812 0.930292
v 0.687621 0.647799 0.809005
v 0.581202 0.864741 0.753607
v 0.591666 0.756270 0.731169
v 0.652936 0.951728 0.869081
v 0.700207 0.992709 1.000000
v 0.700207 0.519831 1.000000
v 0.652936 0.560812 0.869081
v 0.581202 0.647799 0.753607
v 0.470361 0.864741 0.707695
v 0.478828 0.756270 0.684430
v 0.551885 0.951728 0.816478
v 0.672055 1.000000 1.000000
v 0.602817 1.000000 0.955890
v 0.672048 0.512538 1.000000
v 0.602815 0.512538 0.955894
v 0.551885 0.560812 0.816478
v 0.470361 0.647799 0.707695
v 0.355939 0.864741 0.671618
v 0.362347 0.756270 0.647704
v 0.446635 0.951728 0.772881
v 0.509523 1.000000 0.907324
v 0.672048 0.487462 1.000000
v 0.602815 0.487462 0.955894
v 0.509521 0.512538 0.907328
v 0.446635 0.560812 0.772881
v 0.355939 0.647799 0.671618
v 0.238808 0.864741 0.645651
v 0.243107 0.756270 0.621269
v 0.337985 0.951728 0.738624
v 0.412351 1.000000 0.867074
v 0.700207 0.480169 1.000000
v 0.652936 0.439188 0.869081
v 0.749018 0.439188 0.930292
v 0.509521 0.487462 0.907328
v 0.412350 0.512538 0.867078
v 0.337985 0.560812 0.738624
v 0.238808 0.647799 0.645651
v 0.119860 0.864741 0.629991
v 0.122018 0.756270 0.605327
v 0.226762 0.951728 0.713967
v 0.312041 1.000000 0.835447
v 0.839099 0.439412 1.000000
v 0.839399 0.439188 0.999644
v 0.788806 0.352201 0.873468
v 0.687621 0.352201 0.809005
v 0.551885 0.439188 0.816478
v 0.412350 0.487462 0.867078
v 0.312040 0.512538 0.835451
v 0.226762 0.560812 0.713967
v 0.119860 0.647799 0.629991
v 0.000000 0.864741 0.624758
v 0.000000 0.756270 0.600000
v 0.113814 0.951728 0.699097
v 0.209356 1.000000 0.812682
v 0.839788 0.439188 1.000000
v 0.883989 0.352201 0.946503
v 0.803007 0.243730 0.853187
v 0.700000 0.243730 0.787565
v 0.581202 0.352201 0.753607
v 0.446635 0.439188 0.772881
v 0.312040 0.487462 0.835451
v 0.209356 0.512538 0.812686
v 0.113814 0.560812 0.699097
v 0.000000 0.647799 0.624758
v 0.000000 0.951728 0.694128
v 0.105078 1.000000 0.798954
v 0.942370 0.352201 1.000000
v 0.899903 0.243730 0.927538
v 0.788806 0.135259 0.873468
v 0.687621 0.135259 0.809005
v 0.591666 0.243730 0.731169
v 0.470361 0.352201 0.707695
v 0.337985 0.439188 0.738624
v 0.209356 0.487462 0.812686
v 0.105078 0.512538 0.798958
v 0.000000 0.560812 0.694128
v 0.000000 1.000000 0.794366
v 0.978981 0.243730 1.000000
v 0.883989 0.135259 0.946503
v 0.749018 0.048272 0.930292
v 0.652936 0.048272 0.869081
v 0.581202 0.135259 0.753607
v 0.478828 0.243730 0.684430
v 0.355939 0.352201 0.671618
v 0.226762 0.439188 0.713967
v 0.105078 0.487462 0.798958
v 0.000000 0.512538 0.794370
v 0.942370 0.135259 1.000000
v 0.839399 0.048272 0.999644
v 0.602817 0.000000 0.955890
v 0.672056 0.000000 1.000000
v 0.700207 0.007291 1.000000
v 0.551885 0.048272 0.816478
v 0.470361 0.135259 0.707695
v 0.362347 0.243730 0.647704
v 0.238808 0.352201 0.645651
v 0.113814 0.439188 0.699097
v 0.000000 0.487462 0.794370
v 0.839788 0.048272 1.000000
v 0.839099 0.048048 1.000000
v 0.509523 0.000000 0.907324
v 0.446635 0.048272 0.772881
v 0.355939 0.135259 0.671618
v 0.243107 0.243730 0.621269
v 0.119860 0.352201 0.629991
v 0.000000 0.439188 0.694128
v 0.412351 0.000000 0.867074
v 0.337985 0.048272 0.738624
v 0.238808 0.135259 0.645651
v 0.122018 0.243730 0.605327
v 0.000000 0.352201 0.624758
v 0.312041 0.000000 0.835447
v 0.226762 0.048272 0.713967
v 0.119860 0.135259 0.629991
v 0.000000 0.243730 0.600000
v 0.209356 0.000000 0.812682
v 0.113814 0.048272 0.699097
v 0.000000 0.135259 0.624758
v 0.105078 0.000000 0.798954
v 0.000000 0.048272 0.694128
v 0.000000 0.000000 0.794366
vt 0.375000 0.500000
vt 0.375000 0.000000
vt 0.406250 0.000000
vt 0.218750 0.500000
vt 0.218750 0.000000
vt 0.406250 0.500000
vt 0.062008 0.999925
vt 0.068703 0.999925
vt 0.068703 0.500000
vt 0.074379 0.999925
vt 0.074379 0.500000
vt 0.049561 0.999925
vt 0.043885 0.999925
vt 0.043885 0.500000
vt 0.037190 0.999925
vt 0.037190 0.500000
vt 0.030494 0.999925
vt 0.030494 0.500000
vt 0.024818 0.999925
vt 0.024818 0.500000
vt 0.099197 0.999925
vt 0.093521 0.999925
vt 0.093521 0.500000
vt 0.086826 0.999925
vt 0.086826 0.500000
vt 0.080130 0.999925
vt 0.080130 0.500000
vt 0.074454 0.999925
vt 0.074454 0.500000
vt 0.000000 0.999925
vt 0.005676 0.999925
vt 0.005676 0.500000
vt 0.012372 0.999925
vt 0.012372 0.500000
vt 0.019067 0.999925
vt 0.019067 0.500000
vt 0.024744 0.999925
vt 0.024743 0.500000
vt 0.055312 0.999925
vt 0.062008 0.500000
vt 0.055312 0.500000
vt 0.049561 0.500000
vt 0.099197 0.500000
vt 0.000000 0.500000
vt 0.833984 0.751953
vt 0.833984 0.835937
vt 0.777264 0.835938
vt 0.777264 0.667969
vt 0.833984 0.667969
vt 0.916016 0.751953
vt 0.916016 0.835937
vt 0.833984 0.917969
vt 0.833586 0.917969
vt 0.833586 0.587891
vt 0.833984 0.587891
vt 0.916016 0.667969
vt 1.000000 0.751953
vt 1.000000 0.835937
vt 0.916016 0.917969
vt 0.833984 0.918350
vt 0.833984 0.587510
vt 0.916016 0.587891
vt 1.000000 0.667969
vt 0.500000 0.751953
vt 0.578125 0.751953
vt 0.578125 0.833984
vt 1.000000 0.917969
vt 1.000000 0.587891
vt 0.500000 0.669922
vt 0.578125 0.669922
vt 0.662109 0.751953
vt 0.662109 0.833984
vt 0.578125 0.917969
vt 0.500000 0.917969
vt 0.934447 1.000000
vt 0.934452 0.505859
vt 0.578125 0.585938
vt 0.662109 0.669922
vt 0.748047 0.751953
vt 0.748047 0.833984
vt 0.662109 0.917969
vt 0.500000 1.000000
vt 1.000000 0.494141
vt 1.000000 0.505859
vt 0.578125 0.503906
vt 0.500000 0.585938
vt 0.662109 0.585938
vt 0.748047 0.669922
vt 0.832031 0.751953
vt 0.832031 0.833984
vt 0.748047 0.917969
vt 0.662109 0.999997
vt 1.000000 0.412109
vt 0.934452 0.494141
vt 0.500000 0.503906
vt 0.500000 0.496094
vt 0.578125 0.496094
vt 0.662109 0.503906
vt 0.748047 0.585938
vt 0.832031 0.669922
vt 0.916016 0.833984
vt 0.832031 0.917969
vt 0.833984 0.412490
vt 0.833984 0.412109
vt 0.916016 0.412109
vt 0.916016 0.330078
vt 1.000000 0.330078
vt 0.500000 0.414062
vt 0.578125 0.414062
vt 0.662109 0.496094
vt 0.748047 0.503906
vt 0.832031 0.585938
vt 0.916016 0.669922
vt 1.000000 0.833984
vt 0.748047 1.000000
vt 0.833586 0.412109
vt 0.916016 0.250000
vt 1.000000 0.250000
vt 0.578125 0.330078
vt 0.662109 0.414062
vt 0.748047 0.496094
vt 0.832031 0.503906
vt 0.916016 0.585938
vt 1.000000 0.669922
vt 0.916016 0.999997
vt 0.833984 0.330078
vt 1.000000 0.164062
vt 0.578125 0.248047
vt 0.500000 0.330078
vt 0.662109 0.330078
vt 0.748047 0.414062
vt 0.832031 0.496094
vt 0.916016 0.503906
vt 1.000000 0.585938
vt 1.000000 0.999997
vt 0.833984 0.250000
vt 0.777264 0.330078
vt 0.833984 0.164062
vt 0.916016 0.164062
vt 1.000000 0.082031
vt 0.500000 0.166016
vt 0.578125 0.166016
vt 0.662109 0.248047
vt 0.748047 0.330078
vt 0.832031 0.414062
vt 0.916016 0.496094
vt 1.000000 0.503906
vt 0.777264 0.164062
vt 0.833984 0.082031
vt 0.916016 0.082031
vt 0.916016 0.012393
vt 0.934447 0.000000
vt 0.578125 0.082031
vt 0.662109 0.166016
vt 0.748047 0.248047
vt 0.832031 0.330078
vt 0.916016 0.414062
vt 0.833586 0.082031
vt 0.833984 0.081650
vt 0.500000 0.082031
vt 0.500000 0.000003
vt 0.662109 0.082031
vt 0.748047 0.166016
vt 0.832031 0.248047
vt 1.000000 0.414062
vt 1.000000 0.496094
vt 0.578125 0.000003
vt 0.748047 0.082031
vt 0.832031 0.166016
vt 0.916016 0.248047
vt 0.662109 0.000003
vt 0.832031 0.082031
vt 0.916016 0.166016
vt 1.000000 0.248047
vt 0.748047 0.000003
vt 1.000000 0.166016
vt 0.916016 0.000000
vt 0.758515 0.751953
vt 0.500000 0.833984
vt 0.916016 0.987607
vt 0.916016 0.518252
vt 0.578125 0.999997
vt 0.916016 0.481748
vt 0.832031 0.999997
vt 0.500000 0.248047
vt 0.758515 0.250000
vt 1.000000 0.000000
vt 0.832031 0.000000
vn 0.000000 0.000000 -1.000000
vn 1.000000 0.000000 0.000000
vn 0.382700 0.000000 -0.923900
vn 0.707100 0.000000 -0.707100
vn 0.923900 0.000000 -0.382700
vn 0.923900 0.000000 0.382700
vn 0.707100 0.000000 0.707100
vn 0.382700 0.000000 0.923900
vn 0.000000 0.000000 1.000000
vn -0.382700 0.000000 0.923900
vn -0.707100 0.000000 0.707100
vn -0.923900 0.000000 0.382700
vn -1.000000 0.000000 0.000000
vn -0.923900 0.000000 -0.382700
vn -0.707100 0.000000 -0.707100
vn -0.382700 0.000000 -0.923900
vn 0.642800 0.000000 -0.766000
vn 0.579900 0.431500 -0.691100
vn 0.627400 0.371000 -0.684700
vn 0.627400 -0.371000 -0.684700
vn 0.579900 -0.431500 -0.691100
vn 0.573600 0.000000 -0.819100
vn 0.517400 0.431500 -0.738900
vn 0.403100 0.778800 -0.480500
vn 0.474700 0.711500 -0.518000
vn 0.474700 -0.711500 -0.518100
vn 0.403100 -0.778800 -0.480500
vn 0.517400 -0.431500 -0.738900
vn 0.500000 0.000000 -0.866000
vn 0.451000 0.431500 -0.781200
vn 0.359800 0.778800 -0.513800
vn 0.271900 0.900900 -0.338100
vn 0.271900 -0.900900 -0.338200
vn 0.359800 -0.778800 -0.513800
vn 0.451000 -0.431500 -0.781200
vn 0.422600 0.000000 -0.906300
vn 0.381200 0.431500 -0.817600
vn 0.313600 0.778800 -0.543200
vn 0.313600 -0.778800 -0.543200
vn 0.381200 -0.431500 -0.817600
vn 0.342000 0.000000 -0.939700
vn 0.308500 0.431500 -0.847700
vn 0.265100 0.778800 -0.568500
vn 0.233300 0.900800 -0.366200
vn 0.408800 -0.648900 -0.641700
vn 0.265100 -0.778800 -0.568500
vn 0.308500 -0.431500 -0.847700
vn 0.258800 0.000000 -0.965900
vn 0.233500 0.431500 -0.871400
vn 0.214500 0.778800 -0.589400
vn 0.216900 0.901000 -0.375700
vn 0.421200 0.538800 -0.729500
vn 0.421200 -0.538800 -0.729500
vn 0.356000 -0.538800 -0.763500
vn 0.214500 -0.778800 -0.589400
vn 0.233500 -0.431500 -0.871400
vn 0.173600 0.000000 -0.984800
vn 0.156600 0.431500 -0.888400
vn 0.162300 0.778800 -0.605900
vn 0.148400 0.901000 -0.407700
vn 0.408800 0.648900 -0.641700
vn 0.356000 0.538800 -0.763500
vn 0.288100 -0.538800 -0.791600
vn 0.162300 -0.778800 -0.605900
vn 0.156600 -0.431500 -0.888400
vn 0.087100 0.000000 -0.996200
vn 0.078600 0.431500 -0.898700
vn 0.108900 0.778800 -0.617700
vn 0.271900 0.900900 -0.338200
vn 0.288100 0.538800 -0.791600
vn 0.218000 -0.538800 -0.813700
vn 0.108900 -0.778800 -0.617700
vn 0.078600 -0.431500 -0.898700
vn 0.043600 0.000000 -0.999000
vn 0.039300 0.431100 -0.901400
vn 0.054700 0.778800 -0.624800
vn 0.112300 0.901000 -0.419100
vn 0.474700 0.711500 -0.518100
vn 0.218000 0.538800 -0.813700
vn 0.146300 -0.538800 -0.829600
vn 0.054700 -0.778800 -0.624800
vn 0.039300 -0.431100 -0.901400
vn 0.027400 0.778500 -0.627000
vn 0.037800 0.901000 -0.432200
vn 0.146300 0.538800 -0.829600
vn 0.073400 -0.538800 -0.839200
vn 0.027400 -0.778500 -0.627000
vn 0.018900 0.900800 -0.433800
vn 0.073400 0.538800 -0.839200
vn 0.036700 -0.538400 -0.841900
vn 0.242300 -0.900900 -0.360000
vn 0.233300 -0.900800 -0.366200
vn 0.216900 -0.901000 -0.375700
vn 0.036700 0.538400 -0.841900
vn 0.183400 -0.901000 -0.393200
vn 0.148400 -0.901000 -0.407700
vn 0.112300 -0.901000 -0.419100
vn 0.037800 -0.901000 -0.432200
vn 0.675600 0.000000 -0.737300
vn 0.242300 0.900900 -0.360000
vn 0.183400 0.901000 -0.393200
vn 0.075300 0.901000 -0.427300
vn 0.075300 -0.901000 -0.427300
vn 0.018900 -0.900800 -0.433800
usemtl _tex
s off
f 36/1/1 35/2/1 37/3/1
f 34/4/2 33/5/2 35/2/2
f 38/6/1 36/1/1 37/3/1
f 36/1/2 34/4/2 35/2/2
s 1
f 2/7/1 4/8/3 3/9/3
f 4/8/3 6/10/4 5/11/4
f 6/12/4 8/13/5 7/14/5
f 8/13/5 10/15/2 9/16/2
f 10/15/2 12/17/6 11/18/6
f 12/17/6 14/19/7 13/20/7
f 14/21/7 16/22/8 15/23/8
f 16/22/8 18/24/9 17/25/9
f 18/24/9 20/26/10 19/27/10
f 20/26/10 22/28/11 21/29/11
f 22/30/11 24/31/12 23/32/12
f 24/31/12 26/33/13 25/34/13
f 26/33/13 28/35/14 27/36/14
f 28/35/14 30/37/15 29/38/15
f 32/39/16 2/7/1 1/40/1
f 30/12/15 32/39/16 31/41/16
f 1/40/1 2/7/1 3/9/3
f 3/9/3 4/8/3 5/11/4
f 5/42/4 6/12/4 7/14/5
f 7/14/5 8/13/5 9/16/2
f 9/16/2 10/15/2 11/18/6
f 11/18/6 12/17/6 13/20/7
f 13/43/7 14/21/7 15/23/8
f 15/23/8 16/22/8 17/25/9
f 17/25/9 18/24/9 19/27/10
f 19/27/10 20/26/10 21/29/11
f 21/44/11 22/30/11 23/32/12
f 23/32/12 24/31/12 25/34/13
f 25/34/13 26/33/13 27/36/14
f 27/36/14 28/35/14 29/38/15
f 31/41/16 32/39/16 1/40/1
f 29/42/15 30/12/15 31/41/16
s 4
f 42/45/17 41/46/18 40/47/19
f 43/48/20 44/49/21 42/45/17
f 42/45/17 46/50/22 45/51/23
f 41/46/18 48/52/24 47/53/25
f 49/54/26 50/55/27 44/49/21
f 51/56/28 46/50/22 42/45/17
f 46/50/22 53/57/29 52/58/30
f 45/51/23 54/59/31 48/52/24
f 47/53/25 48/52/24 55/60/32
f 56/61/33 50/55/27 49/54/26
f 57/62/34 51/56/28 44/49/21
f 58/63/35 53/57/29 46/50/22
f 53/64/29 60/65/36 59/66/37
f 45/51/23 52/58/30 61/67/38
f 55/60/32 48/52/24 54/59/31
f 57/62/34 50/55/27 56/61/33
f 57/62/34 64/68/39 58/63/35
f 58/69/35 65/70/40 60/65/36
f 67/71/41 66/72/42 59/66/37
f 59/66/37 68/73/43 61/74/38
f 61/67/38 69/75/44 54/59/31
f 64/68/39 57/62/34 71/76/45
f 73/77/46 65/70/40 58/69/35
f 65/70/40 74/78/47 67/71/41
f 76/79/48 75/80/49 66/72/42
f 59/66/37 66/72/42 77/81/50
f 70/82/51 61/74/38 68/73/43
f 80/83/52 72/84/53 71/76/45
f 81/85/54 73/77/46 64/86/39
f 82/87/55 74/78/47 65/70/40
f 83/88/56 76/79/48 67/71/41
f 85/89/57 84/90/58 75/80/49
f 75/80/49 86/91/59 77/81/50
f 68/73/43 77/81/50 87/92/60
f 89/93/38 80/83/52 79/94/61
f 72/95/53 80/96/52 91/97/62
f 81/85/54 92/98/63 82/87/55
f 82/87/55 93/99/64 83/88/56
f 94/100/65 85/89/57 76/79/48
f 85/89/57 96/50/66 95/101/67
f 84/90/58 97/102/68 86/91/59
f 87/92/60 77/81/50 86/91/59
f 99/103/69 100/104/24 90/105/31
f 101/106/23 102/107/30 89/93/38
f 89/108/38 103/109/43 91/97/62
f 81/85/54 91/97/62 104/110/70
f 92/98/63 105/111/71 93/99/64
f 93/99/64 106/112/72 94/100/65
f 107/113/73 96/50/66 85/89/57
f 96/50/66 109/57/74 108/114/75
f 95/101/67 110/59/76 97/102/68
f 98/115/77 86/91/59 97/102/68
f 112/116/78 100/104/24 99/103/69
f 101/106/23 90/105/31 100/104/24
f 114/117/22 115/118/29 102/107/30
f 116/119/37 103/109/43 89/108/38
f 117/120/50 104/110/70 91/97/62
f 92/98/63 104/110/70 118/121/79
f 119/122/80 106/112/72 93/99/64
f 120/123/81 107/113/73 94/100/65
f 121/124/82 109/57/74 96/50/66
f 95/101/67 108/114/75 122/67/83
f 97/102/68 110/59/76 123/125/84
f 113/126/18 100/104/24 112/116/78
f 114/117/22 101/106/23 113/126/18
f 127/127/35 115/118/29 114/117/22
f 128/128/36 116/119/37 102/129/30
f 116/119/37 129/130/42 117/120/50
f 130/131/59 118/121/79 104/110/70
f 105/111/71 118/121/79 131/132/85
f 119/122/80 132/133/86 120/123/81
f 133/134/87 121/124/82 107/113/73
f 110/59/76 122/67/83 134/135/88
f 125/136/17 113/126/18 124/137/19
f 136/138/21 126/139/28 114/117/22
f 138/140/39 127/127/35 126/139/28
f 127/141/35 139/142/40 128/128/36
f 140/143/41 129/130/42 116/119/37
f 141/144/49 130/131/59 117/120/50
f 130/131/59 142/145/68 131/132/85
f 119/122/80 131/132/85 143/146/89
f 144/147/90 133/134/87 120/123/81
f 145/148/20 136/138/21 125/136/17
f 146/149/27 137/150/34 126/139/28
f 137/150/34 149/151/91 148/152/92
f 150/153/46 139/142/40 127/141/35
f 139/142/40 151/154/47 140/143/41
f 152/155/48 141/144/49 129/130/42
f 153/156/58 142/145/68 130/131/59
f 154/157/76 143/146/89 131/132/85
f 144/147/90 132/133/86 143/146/89
f 156/158/26 146/149/27 136/138/21
f 137/150/34 146/149/27 157/159/33
f 150/153/46 138/160/39 147/161/93
f 159/162/55 151/154/47 139/142/40
f 151/154/47 160/163/56 152/155/48
f 152/155/48 161/164/57 153/156/58
f 153/156/58 162/106/67 154/157/76
f 163/165/83 155/166/94 143/146/89
f 157/159/33 146/149/27 156/158/26
f 159/162/55 150/153/46 158/167/95
f 159/162/55 165/168/64 160/163/56
f 166/169/65 161/164/57 152/155/48
f 161/164/57 167/170/66 162/106/67
f 162/106/67 168/107/75 163/165/83
f 165/168/64 159/162/55 164/171/96
f 165/168/64 170/172/72 166/169/65
f 171/173/73 167/170/66 161/164/57
f 172/174/74 168/107/75 162/106/67
f 170/172/72 165/168/64 169/175/97
f 174/150/81 171/173/73 166/169/65
f 175/176/82 172/174/74 167/170/66
f 176/177/98 174/150/81 170/172/72
f 177/140/87 175/176/82 171/173/73
f 177/140/87 174/150/81 176/177/98
f 39/178/99 42/45/17 40/47/19
f 39/178/99 43/48/20 42/45/17
f 41/46/18 42/45/17 45/51/23
f 40/47/19 41/46/18 47/53/25
f 43/48/20 49/54/26 44/49/21
f 44/49/21 51/56/28 42/45/17
f 45/51/23 46/50/22 52/58/30
f 41/46/18 45/51/23 48/52/24
f 50/55/27 57/62/34 44/49/21
f 51/56/28 58/63/35 46/50/22
f 52/179/30 53/64/29 59/66/37
f 54/59/31 45/51/23 61/67/38
f 62/180/100 55/60/32 54/59/31
f 63/181/91 57/62/34 56/61/33
f 51/56/28 57/62/34 58/63/35
f 53/64/29 58/69/35 60/65/36
f 60/65/36 67/71/41 59/66/37
f 52/179/30 59/66/37 61/74/38
f 62/180/100 54/59/31 69/75/44
f 61/67/38 70/135/51 69/75/44
f 63/181/91 71/76/45 57/62/34
f 72/84/53 64/68/39 71/76/45
f 64/86/39 73/77/46 58/69/35
f 60/65/36 65/70/40 67/71/41
f 67/71/41 76/79/48 66/72/42
f 68/73/43 59/66/37 77/81/50
f 78/182/101 70/82/51 68/73/43
f 79/94/61 80/83/52 71/76/45
f 72/95/53 81/85/54 64/86/39
f 73/77/46 82/87/55 65/70/40
f 74/78/47 83/88/56 67/71/41
f 76/79/48 85/89/57 75/80/49
f 66/72/42 75/80/49 77/81/50
f 78/182/101 68/73/43 87/92/60
f 79/94/61 88/183/100 90/105/31
f 90/105/31 89/93/38 79/94/61
f 81/85/54 72/95/53 91/97/62
f 73/77/46 81/85/54 82/87/55
f 74/78/47 82/87/55 83/88/56
f 83/88/56 94/100/65 76/79/48
f 84/90/58 85/89/57 95/101/67
f 75/80/49 84/90/58 86/91/59
f 98/115/77 87/92/60 86/91/59
f 88/183/100 99/103/69 90/105/31
f 90/105/31 101/106/23 89/93/38
f 80/96/52 89/108/38 91/97/62
f 92/98/63 81/85/54 104/110/70
f 82/87/55 92/98/63 93/99/64
f 83/88/56 93/99/64 94/100/65
f 94/100/65 107/113/73 85/89/57
f 95/101/67 96/50/66 108/114/75
f 84/90/58 95/101/67 97/102/68
f 111/184/102 98/115/77 97/102/68
f 113/126/18 101/106/23 100/104/24
f 101/106/23 114/117/22 102/107/30
f 102/129/30 116/119/37 89/108/38
f 103/109/43 117/120/50 91/97/62
f 105/111/71 92/98/63 118/121/79
f 105/111/71 119/122/80 93/99/64
f 106/112/72 120/123/81 94/100/65
f 107/113/73 121/124/82 96/50/66
f 110/59/76 95/101/67 122/67/83
f 111/184/102 97/102/68 123/125/84
f 124/137/19 113/126/18 112/116/78
f 125/136/17 114/117/22 113/126/18
f 126/139/28 127/127/35 114/117/22
f 115/185/29 128/128/36 102/129/30
f 103/109/43 116/119/37 117/120/50
f 117/120/50 130/131/59 104/110/70
f 119/122/80 105/111/71 131/132/85
f 106/112/72 119/122/80 120/123/81
f 120/123/81 133/134/87 107/113/73
f 123/125/84 110/59/76 134/135/88
f 135/186/99 125/136/17 124/137/19
f 125/136/17 136/138/21 114/117/22
f 137/150/34 138/140/39 126/139/28
f 115/185/29 127/141/35 128/128/36
f 128/128/36 140/143/41 116/119/37
f 129/130/42 141/144/49 117/120/50
f 118/121/79 130/131/59 131/132/85
f 132/133/86 119/122/80 143/146/89
f 132/133/86 144/147/90 120/123/81
f 135/186/99 145/148/20 125/136/17
f 136/138/21 146/149/27 126/139/28
f 148/152/92 147/187/93 138/140/39
f 138/140/39 137/150/34 148/152/92
f 138/160/39 150/153/46 127/141/35
f 128/128/36 139/142/40 140/143/41
f 140/143/41 152/155/48 129/130/42
f 141/144/49 153/156/58 130/131/59
f 142/145/68 154/157/76 131/132/85
f 155/166/94 144/147/90 143/146/89
f 145/148/20 156/158/26 136/138/21
f 149/151/91 137/150/34 157/159/33
f 158/167/95 150/153/46 147/161/93
f 150/153/46 159/162/55 139/142/40
f 140/143/41 151/154/47 152/155/48
f 141/144/49 152/155/48 153/156/58
f 142/145/68 153/156/58 154/157/76
f 154/157/76 163/165/83 143/146/89
f 164/171/96 159/162/55 158/167/95
f 151/154/47 159/162/55 160/163/56
f 160/163/56 166/169/65 152/155/48
f 153/156/58 161/164/57 162/106/67
f 154/157/76 162/106/67 163/165/83
f 169/175/97 165/168/64 164/171/96
f 160/163/56 165/168/64 166/169/65
f 166/169/65 171/173/73 161/164/57
f 167/170/66 172/174/74 162/106/67
f 173/188/103 170/172/72 169/175/97
f 170/172/72 174/150/81 166/169/65
f 171/173/73 175/176/82 167/170/66
f 173/188/103 176/177/98 170/172/72
f 174/150/81 177/140/87 171/173/73
f 178/187/104 177/140/87 176/177/98
