# Blender v2.76 (sub 0) OBJ File: 'tng_angled_corridor_alt.blend'
# www.blender.org
mtllib tng_angled_corridor_alt.mtl

o corridor_btm_cargo_right
v 0.450000 1.000000 0.000000
v 0.374997 0.625000 0.000000
v 0.375000 0.625000 0.187500
v 0.450000 1.000000 0.187500
v 1.000000 0.000000 0.000000
v 0.350000 1.000000 0.000000
v 0.500000 0.625000 0.000000
v 1.000000 0.000000 1.000000
v 0.500000 0.625000 1.000000
v 0.350000 1.000000 1.000000
v 0.125000 0.625000 0.187500
v 0.200000 1.000000 0.187500
v 0.275000 0.625000 0.000000
v 0.275000 0.625000 1.000000

vt 0.000000 0.562500
vt 0.000000 0.000000
vt 1.000000 0.000000
vt 0.000000 0.750000
vt 1.000000 0.750000
vt 1.000000 1.000000
vt 1.000000 0.562500
vt 0.000000 1.000000
vt 0.000000 0.687500
vt 0.187500 0.687500
vt 0.187500 1.000000
vt 0.375000 1.000000
vt 0.375000 0.687500

vn 0.780900 0.624700 0.000000
vn 0.980600 -0.196100 0.000000
vn -0.000000 1.000000 0.000000
vn 0.000000 0.000000 1.000000

usemtl tex_cargo_btm
f 9/1/1 8/2/1 5/3/1
f 14/4/2 13/5/2 6/6/2
f 7/7/3 13/5/3 14/4/3
f 7/7/1 9/1/1 5/3/1
f 10/8/2 14/4/2 6/6/2
f 9/1/3 7/7/3 14/4/3
usemtl tex_brace
f 3/9/2 2/10/2 1/11/2
f 3/10/4 4/11/4 12/12/4
f 4/8/2 3/9/2 1/11/2
f 11/13/4 3/10/4 12/12/4
